<svg xmlns="http://www.w3.org/2000/svg" viewBox="0 0 422.95 62.05"><defs><style>.cls-1{fill:#fdb432;}.cls-2{fill:#15374e;fill-rule:evenodd;}.cls-3{fill:#fff;}</style></defs><title>Asset 1</title><g id="Layer_2" data-name="Layer 2"><g id="Lag_1" data-name="Lag 1"><path class="cls-1" d="M32.94,48.49H13.44C5.29,48.49-.39,41.4,0,33.26a95.54,95.54,0,0,1,.51-10,45.61,45.61,0,0,1,2-9.71C4.42,7,9.14,1.73,16,1.73h19.5C43.6,1.73,48.54,8.82,48.87,17A53.58,53.58,0,0,1,48.6,26a59,59,0,0,1-2.25,10.64C44.3,43.17,39.75,48.49,32.94,48.49Z"/><path class="cls-2" d="M20.46,12.49a3.32,3.32,0,1,0,3.32,3.32A3.31,3.31,0,0,0,20.46,12.49Zm-6,5.31a3.32,3.32,0,1,0,3.32,3.32A3.32,3.32,0,0,0,14.48,17.8Zm10.63-2a3.32,3.32,0,1,1,3.32,3.32A3.32,3.32,0,0,1,25.11,15.81Zm9.3,2a3.32,3.32,0,1,0,3.32,3.32A3.32,3.32,0,0,0,34.41,17.8Zm-4.06,9c.38.45.77.92,1.19,1.4.1.11.21.21.31.31,1.68,1.66,3.54,3.52,3.16,6.07a4.2,4.2,0,0,1-3.1,3.08,10.63,10.63,0,0,1-2.5-.18,37,37,0,0,0-4.86-.4h-.24a36.46,36.46,0,0,0-4.82.4A11,11,0,0,1,17,37.7a4.15,4.15,0,0,1-3.09-3.08c-.38-2.54,1.49-4.39,3.16-6l.32-.31c.75-.87,1.41-1.66,2.1-2.47l1.19-1.4A5.67,5.67,0,0,1,23,22.64a1.69,1.69,0,0,1,.44-.12,5.2,5.2,0,0,1,1-.07,7.11,7.11,0,0,1,1,.05,3.6,3.6,0,0,1,.44.12,5.62,5.62,0,0,1,2.32,1.76C29,25.24,29.66,26,30.35,26.84Z"/><path class="cls-3" d="M72.25,1.69H83.7L80.6,25.75h24.76l3.1-24.06h11.45l-7.68,59.53H100.78L104,35.81H79.26L76,61.22H64.56Z"/><path class="cls-3" d="M133.88,62.05q-10.29,0-11.18-10.73a23.68,23.68,0,0,1,0-3.06c0-1.09.16-2.25.33-3.48l3.57-27.5h11.13L134.5,42.35c-.1.84-.18,1.59-.23,2.26a11.33,11.33,0,0,0,0,1.93q.5,6,5.51,6a11,11,0,0,0,6-2,17.29,17.29,0,0,0,5.4-6l3.5-27.25h11.21l-4,31c0,.28-.05.55-.06.8a5.45,5.45,0,0,0,0,.71c.1,1.18.82,1.79,2.16,1.85l-1.21,9.55c-1,.17-1.86.31-2.6.42a14.23,14.23,0,0,1-2,.17,8.17,8.17,0,0,1-4.65-1.17A4.55,4.55,0,0,1,151.52,57c0-.44-.05-1,0-1.51a18.44,18.44,0,0,1,.3-2.51,21.78,21.78,0,0,1-17.9,9Z"/><path class="cls-3" d="M174.65,17.28h10.12l-1.08,8.13a19.44,19.44,0,0,1,7.48-6.54,22.19,22.19,0,0,1,10.09-2.35,12.74,12.74,0,0,1,4.8.8,8.82,8.82,0,0,1,3.18,2.14,8.54,8.54,0,0,1,1.86,3.23,17,17,0,0,1,.79,4,30.66,30.66,0,0,1,.08,3.48,35.29,35.29,0,0,1-.32,3.65l-3.49,27.41H197l3.14-24.65c.09-.84.17-1.63.22-2.39a15.42,15.42,0,0,0,0-2.05,6.61,6.61,0,0,0-1.65-4.32,4.94,4.94,0,0,0-3.59-1.38,8.76,8.76,0,0,0-3.21.67A13.58,13.58,0,0,0,188.58,29a16.46,16.46,0,0,0-2.89,2.89,15.14,15.14,0,0,0-2.16,3.69l-3.31,25.65H169Z"/><path class="cls-3" d="M232.81,62.05a15.81,15.81,0,0,1-6.68-1.38,16.12,16.12,0,0,1-5.21-3.82,18.79,18.79,0,0,1-3.53-5.74A24.55,24.55,0,0,1,215.76,44a27.11,27.11,0,0,1,1.1-10.43,26.57,26.57,0,0,1,4.54-8.77,23.13,23.13,0,0,1,7.15-6,18.38,18.38,0,0,1,8.93-2.27,13.48,13.48,0,0,1,7.88,2.35A13.25,13.25,0,0,1,250.22,25L253.5,0h11.2l-6.19,48.3a6.24,6.24,0,0,0-.12,1.51c.1,1.17.82,1.79,2.16,1.84l-1.21,9.56c-1,.17-1.86.31-2.6.42a13.78,13.78,0,0,1-2,.17,8.49,8.49,0,0,1-4.74-1.18,4.47,4.47,0,0,1-2-3.6,9.07,9.07,0,0,1,0-1.47c0-.53.11-1.19.21-2a18.74,18.74,0,0,1-7,6.33A18.18,18.18,0,0,1,232.81,62.05ZM237,52.49a9.35,9.35,0,0,0,3-.54,12.11,12.11,0,0,0,3-1.55,16.71,16.71,0,0,0,2.65-2.35,12.37,12.37,0,0,0,2-2.94L249,34.63a11.48,11.48,0,0,0-3.44-6.12,8.37,8.37,0,0,0-5.81-2.43,10,10,0,0,0-5.07,1.38,13.53,13.53,0,0,0-4.08,3.69,17.21,17.21,0,0,0-2.58,5.2,15.76,15.76,0,0,0-.64,5.91,12.33,12.33,0,0,0,2.95,7.3A8.47,8.47,0,0,0,237,52.49Z"/><path class="cls-3" d="M285.33,62.05a20.13,20.13,0,0,1-7.6-1.38,18.34,18.34,0,0,1-6-3.86,18.55,18.55,0,0,1-4-5.87,23.37,23.37,0,0,1-1.83-7.42,24.72,24.72,0,0,1,1.28-10.35,24.41,24.41,0,0,1,5.14-8.6,25.13,25.13,0,0,1,8.29-5.87,26.05,26.05,0,0,1,10.73-2.18q7.11,0,11.6,3.15a11.68,11.68,0,0,1,5,9.09q1.19,14.18-24.08,14.17h-3.09c-1.06,0-2.18,0-3.36-.16l.09,1.09a12.94,12.94,0,0,0,2.61,7.21,8,8,0,0,0,6.58,2.76,12.49,12.49,0,0,0,6.19-1.59,10.78,10.78,0,0,0,4.35-4.45l9.1,2.77a21.13,21.13,0,0,1-3.71,4.65,23.48,23.48,0,0,1-5,3.65,26.57,26.57,0,0,1-5.87,2.35A24.32,24.32,0,0,1,285.33,62.05Zm5-37.4a11,11,0,0,0-4.44.89,11.28,11.28,0,0,0-3.52,2.38,15,15,0,0,0-2.59,3.53,18.11,18.11,0,0,0-1.66,4.27c.9.06,1.77.09,2.6.09h2.6a46.29,46.29,0,0,0,6.78-.42,14.77,14.77,0,0,0,4.41-1.26,5.45,5.45,0,0,0,2.3-2,4.44,4.44,0,0,0,.54-2.64,4.5,4.5,0,0,0-2.15-3.65A9,9,0,0,0,290.33,24.65Z"/><path class="cls-3" d="M326.89,62.05a15.66,15.66,0,0,1-6.68-1.39,15.94,15.94,0,0,1-5.2-3.81,18.41,18.41,0,0,1-3.53-5.74A24.24,24.24,0,0,1,309.84,44a27.18,27.18,0,0,1,1.1-10.44,26.81,26.81,0,0,1,4.54-8.76,23.28,23.28,0,0,1,7.15-6,18.37,18.37,0,0,1,8.93-2.26,13.44,13.44,0,0,1,7.89,2.35A13.19,13.19,0,0,1,344.3,25l1.05-7.55h11.21l-4,30.86a5.81,5.81,0,0,0-.13,1.51c.1,1.17.82,1.79,2.16,1.84l-1.21,9.56c-1,.17-1.86.31-2.6.42a13.54,13.54,0,0,1-1.95.17,8.18,8.18,0,0,1-4.75-1.26,4.82,4.82,0,0,1-2-3.77,16.39,16.39,0,0,1,.24-3.19,18.82,18.82,0,0,1-7,6.33A18.3,18.3,0,0,1,326.89,62.05Zm4.23-9.56a9,9,0,0,0,3-.55,11.78,11.78,0,0,0,3-1.55,16.65,16.65,0,0,0,2.65-2.34,12.57,12.57,0,0,0,2-2.94l1.31-10.48a11.48,11.48,0,0,0-3.44-6.12,8.35,8.35,0,0,0-5.8-2.43,10,10,0,0,0-5.07,1.38,13.19,13.19,0,0,0-4.09,3.69,17.43,17.43,0,0,0-2.57,5.2,15.36,15.36,0,0,0-.64,5.91,12.26,12.26,0,0,0,2.94,7.3A8.54,8.54,0,0,0,331.12,52.49Z"/><path class="cls-3" d="M360.64,17.27h11.62l5.57,34.8q2.63-4.6,4.74-8.89t3.81-8.51q1.69-4.23,3-8.47t2.22-8.93h10.29a92.72,92.72,0,0,1-7.25,22,151.07,151.07,0,0,1-12.77,22h-11.7Z"/><path class="cls-3" d="M412.18,61.88a10.35,10.35,0,0,1-6.69-2,7.74,7.74,0,0,1-2.72-5.66,12.7,12.7,0,0,1,0-1.51c0-.5,0-1.06.12-1.68L409.47,0h11.12l-6,47.12a10.1,10.1,0,0,0,0,1.68,3.33,3.33,0,0,0,3.72,3.43,7.94,7.94,0,0,0,2.1-.33,12.85,12.85,0,0,0,2.23-.84l.38,8.55a22.93,22.93,0,0,1-5.34,1.68A28.66,28.66,0,0,1,412.18,61.88Z"/></g></g></svg>